# xmcd
#
# Track frame offsets: 
#        150
#        34137
#        83246
#        128640
#        167851
#        207327
#        247170
#
# Disc length: 3769 seconds
#
# Revision: 1
# Processed by: cddbd v1.5.2PL0 Copyright (c) Steve Scherf et al.
# Submitted via: ExactAudioCopyFreeDBPlugin 1.0
#
DISCID=5e0eb707
DTITLE=Die drei Fragezeichen Kids - Tanz der Skelette
DYEAR=2016
DGENRE=Hörspiel
TTITLE0=Schauermärchen
TTITLE1=Verflixte Seifenplanke
TTITLE2=Jerrys Bucht
TTITLE3=Tanz der Skelette
TTITLE4=Plaste und Elaste
TTITLE5=Gefangen
TTITLE6=Justus´ Plan
EXTD=
EXTT0=
EXTT1=
EXTT2=
EXTT3=
EXTT4=
EXTT5=
EXTT6=
PLAYORDER=
